<svg width="17" height="17" viewBox="0 0 17 17" fill="none" xmlns="http://www.w3.org/2000/svg">
<circle cx="8.5" cy="8.5" r="8" fill="#E4E4E4" stroke="#636363"/>
<path d="M9.586 5.684C9.346 5.684 9.142 5.604 8.974 5.444C8.806 5.276 8.722 5.072 8.722 4.832C8.722 4.6 8.806 4.404 8.974 4.244C9.142 4.076 9.346 3.992 9.586 3.992C9.826 3.992 10.026 4.076 10.186 4.244C10.354 4.404 10.438 4.6 10.438 4.832C10.438 5.072 10.354 5.276 10.186 5.444C10.026 5.604 9.826 5.684 9.586 5.684ZM7.534 12.644C7.358 12.644 7.218 12.584 7.114 12.464C7.018 12.344 6.97 12.184 6.97 11.984C6.97 11.856 6.986 11.732 7.018 11.612L8.17 7.556L8.026 7.412L6.862 8.108L6.766 7.964L7.57 7.268C8.17 6.732 8.686 6.464 9.118 6.464C9.294 6.464 9.434 6.524 9.538 6.644C9.642 6.764 9.694 6.924 9.694 7.124C9.694 7.228 9.674 7.352 9.634 7.496L8.482 11.552L8.626 11.708L9.79 11L9.898 11.144L9.082 11.852C8.474 12.38 7.958 12.644 7.534 12.644Z" fill="#636363"/>
</svg>
